<svg xmlns="http://www.w3.org/2000/svg" xmlns:xlink="http://www.w3.org/1999/xlink" width="512" zoomAndPan="magnify" viewBox="0 0 384 383.999986" height="512" preserveAspectRatio="xMidYMid meet" version="1.0"><defs><clipPath id="7795f622f7"><path d="M 0 154 L 384 154 L 384 298.695312 L 0 298.695312 Z M 0 154 " clip-rule="nonzero"/></clipPath><clipPath id="784eb7358e"><path d="M 72 84.945312 L 93 84.945312 L 93 108 L 72 108 Z M 72 84.945312 " clip-rule="nonzero"/></clipPath></defs><g clip-path="url(#7795f622f7)"><path fill="#ffffff" d="M 6.722656 299.046875 L 95.65625 299.046875 C 99.296875 299.046875 102.246094 296.097656 102.246094 292.457031 L 102.246094 266.109375 L 174.710938 266.109375 C 178.347656 266.109375 181.296875 263.160156 181.296875 259.519531 L 181.296875 236.464844 L 257.058594 236.464844 C 260.695312 236.464844 263.644531 233.511719 263.644531 229.875 L 263.644531 203.828125 L 336.488281 203.828125 C 340.125 203.828125 343.074219 200.878906 343.074219 197.238281 L 343.074219 167.292969 L 415.164062 167.292969 C 418.800781 167.292969 421.75 164.34375 421.75 160.703125 C 421.75 157.066406 418.800781 154.117188 415.164062 154.117188 L 336.488281 154.117188 C 332.851562 154.117188 329.902344 157.066406 329.902344 160.703125 L 329.902344 190.652344 L 257.058594 190.652344 C 253.417969 190.652344 250.46875 193.601562 250.46875 197.238281 L 250.46875 223.289062 L 174.710938 223.289062 C 171.074219 223.289062 168.121094 226.238281 168.121094 229.875 L 168.121094 252.933594 L 95.65625 252.933594 C 92.019531 252.933594 89.070312 255.882812 89.070312 259.519531 L 89.070312 285.871094 L 6.722656 285.871094 C 3.085938 285.871094 0.136719 288.820312 0.136719 292.457031 C 0.136719 296.097656 3.085938 299.046875 6.722656 299.046875 Z M 6.722656 299.046875 " fill-opacity="1" fill-rule="nonzero"/></g><path fill="#ffffff" d="M 43.808594 171.492188 C 44.601562 171.808594 45.414062 171.960938 46.21875 171.960938 C 48.828125 171.960938 51.292969 170.355469 52.316406 167.722656 L 60.167969 147.425781 L 65.042969 142 C 64.957031 142.453125 64.875 142.902344 64.789062 143.351562 C 64.789062 143.351562 60.964844 169.726562 63.261719 187.605469 C 63.261719 187.605469 65.226562 199.671875 63.480469 206.152344 C 63.480469 206.152344 57.398438 240.203125 55.625 247.734375 C 54.894531 250.820312 55.210938 254.578125 57.335938 256.9375 C 58.953125 258.734375 60.980469 259.519531 62.976562 259.519531 C 66.546875 259.519531 70.019531 257 70.863281 253.234375 L 81.394531 208.609375 L 82.484375 204.59375 C 82.484375 204.59375 83.484375 198.71875 82.664062 195.453125 L 81.699219 186.21875 C 81.699219 186.21875 81.429688 185.40625 82.007812 184.976562 C 82.117188 184.898438 82.246094 184.863281 82.375 184.863281 C 82.785156 184.863281 83.222656 185.164062 83.222656 185.164062 L 98.027344 191.515625 C 98.027344 191.515625 99.417969 193.359375 99.253906 196.878906 C 99.253906 196.878906 99.082031 213.535156 99.085938 213.667969 C 99.15625 217.585938 99.292969 222.351562 103.167969 224.390625 C 106.164062 225.96875 110.414062 225.484375 112.757812 222.898438 C 114.359375 221.128906 115.207031 218.847656 115.230469 216.4375 L 116.558594 192.222656 C 116.828125 187.957031 117.601562 184.398438 113.019531 181.808594 C 113.019531 181.808594 96.652344 172.28125 96.589844 172.257812 C 93.042969 170.757812 93.699219 167.761719 93.761719 164.433594 C 93.785156 162.886719 93.859375 161.335938 93.914062 159.789062 C 93.929688 159.414062 93.96875 159.070312 93.960938 158.695312 C 93.960938 158.695312 93.929688 157.363281 95.585938 157.363281 C 95.625 157.363281 95.664062 157.363281 95.703125 157.363281 C 100.457031 157.363281 113.609375 157.464844 113.671875 157.464844 C 120.183594 157.464844 121.191406 144.304688 111.894531 144.304688 C 111.828125 144.304688 111.769531 144.304688 111.707031 144.304688 C 111.707031 144.304688 95 143.695312 94.9375 143.691406 C 93.929688 143.636719 93.898438 142.683594 93.867188 141.65625 C 93.738281 137.011719 93.453125 133.410156 92.351562 128.820312 C 91.421875 124.9375 89.675781 121.3125 86.449219 118.890625 C 83.976562 117.027344 81.230469 115.539062 78.230469 114.78125 C 77.609375 114.625 76.46875 114.589844 76.46875 114.589844 C 71.992188 114.589844 69.199219 118.066406 68.320312 119.046875 C 68.320312 119.046875 50.710938 138.179688 50.523438 138.386719 C 49.40625 139.601562 48.640625 140.785156 48.039062 142.332031 L 40.125 162.789062 C 38.792969 166.230469 40.4375 170.128906 43.808594 171.492188 Z M 43.808594 171.492188 " fill-opacity="1" fill-rule="nonzero"/><g clip-path="url(#784eb7358e)"><path fill="#ffffff" d="M 92.363281 96.46875 C 92.363281 97.226562 92.300781 97.976562 92.175781 98.71875 C 92.046875 99.460938 91.859375 100.183594 91.613281 100.882812 C 91.363281 101.582031 91.058594 102.246094 90.699219 102.875 C 90.339844 103.503906 89.929688 104.085938 89.46875 104.621094 C 89.011719 105.15625 88.511719 105.636719 87.972656 106.054688 C 87.433594 106.476562 86.863281 106.832031 86.265625 107.121094 C 85.664062 107.410156 85.046875 107.628906 84.410156 107.777344 C 83.773438 107.925781 83.132812 108 82.484375 108 C 81.832031 108 81.191406 107.925781 80.554688 107.777344 C 79.917969 107.628906 79.300781 107.410156 78.699219 107.121094 C 78.101562 106.832031 77.53125 106.476562 76.992188 106.054688 C 76.453125 105.636719 75.953125 105.15625 75.496094 104.621094 C 75.035156 104.085938 74.625 103.503906 74.265625 102.875 C 73.90625 102.246094 73.601562 101.582031 73.351562 100.882812 C 73.105469 100.183594 72.917969 99.460938 72.789062 98.71875 C 72.664062 97.976562 72.601562 97.226562 72.601562 96.46875 C 72.601562 95.714844 72.664062 94.964844 72.789062 94.222656 C 72.917969 93.480469 73.105469 92.757812 73.351562 92.058594 C 73.601562 91.359375 73.90625 90.695312 74.265625 90.066406 C 74.625 89.4375 75.035156 88.855469 75.496094 88.320312 C 75.953125 87.785156 76.453125 87.304688 76.992188 86.886719 C 77.53125 86.464844 78.101562 86.109375 78.699219 85.820312 C 79.300781 85.53125 79.917969 85.3125 80.554688 85.164062 C 81.191406 85.015625 81.832031 84.941406 82.484375 84.941406 C 83.132812 84.941406 83.773438 85.015625 84.410156 85.164062 C 85.046875 85.3125 85.664062 85.53125 86.265625 85.820312 C 86.863281 86.109375 87.433594 86.464844 87.972656 86.886719 C 88.511719 87.304688 89.011719 87.785156 89.46875 88.320312 C 89.929688 88.855469 90.339844 89.4375 90.699219 90.066406 C 91.058594 90.695312 91.363281 91.359375 91.613281 92.058594 C 91.859375 92.757812 92.046875 93.480469 92.175781 94.222656 C 92.300781 94.964844 92.363281 95.714844 92.363281 96.46875 Z M 92.363281 96.46875 " fill-opacity="1" fill-rule="nonzero"/></g></svg>